<svg width="34" height="30" viewBox="0 0 34 30" fill="none" xmlns="http://www.w3.org/2000/svg">
<path d="M14.7417 21.7745L26.1127 11.3918L23.8546 9.32998L14.7417 17.6509L10.1449 13.4536L7.88686 15.5154L14.7417 21.7745ZM16.9998 29.7273C14.7686 29.7273 12.6718 29.3404 10.7094 28.5667C8.74707 27.7941 7.04008 26.745 5.58847 25.4195C4.13686 24.0941 2.98793 22.5354 2.1417 20.7436C1.29438 18.9518 0.870728 17.0373 0.870728 15C0.870728 12.9627 1.29438 11.0482 2.1417 9.25634C2.98793 7.46452 4.13686 5.90589 5.58847 4.58043C7.04008 3.25498 8.74707 2.20541 10.7094 1.43174C12.6718 0.65905 14.7686 0.272705 16.9998 0.272705C19.2309 0.272705 21.3277 0.65905 23.2901 1.43174C25.2524 2.20541 26.9594 3.25498 28.4111 4.58043C29.8627 5.90589 31.0116 7.46452 31.8578 9.25634C32.7051 11.0482 33.1288 12.9627 33.1288 15C33.1288 17.0373 32.7051 18.9518 31.8578 20.7436C31.0116 22.5354 29.8627 24.0941 28.4111 25.4195C26.9594 26.745 25.2524 27.7941 23.2901 28.5667C21.3277 29.3404 19.2309 29.7273 16.9998 29.7273Z" fill="#00DF80"/>
</svg>
