<svg width="33" height="38" viewBox="0 0 33 38" fill="none" xmlns="http://www.w3.org/2000/svg">
<path d="M19.7812 0.5625V9.53125C19.7812 10.5507 20.1862 11.5283 20.9071 12.2492C21.6279 12.97 22.6056 13.375 23.625 13.375H32.5938V32.5938C32.5938 33.6132 32.1888 34.5909 31.4679 35.3117C30.7471 36.0325 29.7694 36.4375 28.75 36.4375H19.7595C20.3548 36.0623 20.8453 35.5423 21.1852 34.9261C21.5251 34.31 21.7033 33.6177 21.7031 32.9141V26.5078C21.7032 25.5114 21.3935 24.5396 20.8168 23.727C20.2402 22.9144 19.4252 22.3011 18.4846 21.9722C18.3914 20.851 17.8802 19.8059 17.0524 19.044C16.2246 18.2822 15.1406 17.8594 14.0156 17.8594H6.32812C5.64009 17.8594 4.98922 18.0131 4.40625 18.2912V4.40625C4.40625 3.38682 4.81122 2.40915 5.53206 1.68831C6.2529 0.967465 7.23057 0.5625 8.25 0.5625H19.7812ZM22.3438 0.712406V9.53125C22.3438 9.87106 22.4787 10.1969 22.719 10.4372C22.9593 10.6775 23.2852 10.8125 23.625 10.8125H32.4438C32.264 10.1865 31.9281 9.61642 31.4675 9.15584L24.0004 1.69C23.54 1.22899 22.9699 0.892593 22.3438 0.712406ZM6.32812 19.7812C5.64851 19.7812 4.99673 20.0512 4.51616 20.5318C4.0356 21.0124 3.76562 21.6641 3.76562 22.3438V23.625H3.44531C2.68074 23.625 1.94749 23.9287 1.40686 24.4694C0.866224 25.01 0.5625 25.7432 0.5625 26.5078V32.9141C0.5625 34.1517 1.567 35.1562 2.80469 35.1562H3.76562C3.76562 35.8359 4.0356 36.4876 4.51616 36.9682C4.99673 37.4488 5.64851 37.7188 6.32812 37.7188H14.0156C14.6952 37.7188 15.347 37.4488 15.8276 36.9682C16.3081 36.4876 16.5781 35.8359 16.5781 35.1562H17.5391C18.1337 35.1562 18.704 34.92 19.1245 34.4995C19.545 34.079 19.7812 33.5087 19.7812 32.9141V26.5078C19.7812 25.7432 19.4775 25.01 18.9369 24.4694C18.3963 23.9287 17.663 23.625 16.8984 23.625H16.5781V22.3438C16.5781 21.6641 16.3081 21.0124 15.8276 20.5318C15.347 20.0512 14.6952 19.7812 14.0156 19.7812H6.32812ZM5.6875 23.625V22.3438C5.6875 22.1738 5.75499 22.0109 5.87513 21.8908C5.99528 21.7706 6.15822 21.7031 6.32812 21.7031H14.0156C14.1855 21.7031 14.3485 21.7706 14.4686 21.8908C14.5888 22.0109 14.6562 22.1738 14.6562 22.3438V23.625H5.6875ZM5.6875 31.9531C5.6875 31.7832 5.75499 31.6203 5.87513 31.5001C5.99528 31.38 6.15822 31.3125 6.32812 31.3125H14.0156C14.1855 31.3125 14.3485 31.38 14.4686 31.5001C14.5888 31.6203 14.6562 31.7832 14.6562 31.9531V35.1562C14.6562 35.3262 14.5888 35.4891 14.4686 35.6092C14.3485 35.7294 14.1855 35.7969 14.0156 35.7969H6.32812C6.15822 35.7969 5.99528 35.7294 5.87513 35.6092C5.75499 35.4891 5.6875 35.3262 5.6875 35.1562V31.9531Z" fill="white"/>
</svg>
