<svg width="20" height="21" viewBox="0 0 20 21" fill="none" xmlns="http://www.w3.org/2000/svg">
<path d="M4 21C2.9 21 1.95833 20.6083 1.175 19.825C0.391667 19.0417 0 18.1 0 17V11.6C0 11.0833 0.121 10.6043 0.363 10.163C0.605 9.72167 0.942333 9.359 1.375 9.075L9.625 3.725L10.125 4.225C10.4583 4.55833 10.6543 4.95433 10.713 5.413C10.7717 5.87167 10.6757 6.30067 10.425 6.7L9.3 8.5H17C17.2833 8.5 17.521 8.596 17.713 8.788C17.905 8.98 18.0007 9.21733 18 9.5C17.9993 9.78267 17.9033 10.0203 17.712 10.213C17.5207 10.4057 17.2833 10.5013 17 10.5H10V12H19C19.2833 12 19.521 12.096 19.713 12.288C19.905 12.48 20.0007 12.7173 20 13C19.9993 13.2827 19.9033 13.5203 19.712 13.713C19.5207 13.9057 19.2833 14.0013 19 14H10V15.5H18C18.2833 15.5 18.521 15.596 18.713 15.788C18.905 15.98 19.0007 16.2173 19 16.5C18.9993 16.7827 18.9033 17.0203 18.712 17.213C18.5207 17.4057 18.2833 17.5013 18 17.5H10V19H16C16.2833 19 16.521 19.096 16.713 19.288C16.905 19.48 17.0007 19.7173 17 20C16.9993 20.2827 16.9033 20.5203 16.712 20.713C16.5207 20.9057 16.2833 21.0013 16 21H4ZM15.5 7C14.85 7 14.271 6.74567 13.763 6.237C13.255 5.72833 13.0007 5.14933 13 4.5C13 3.91667 13.1917 3.271 13.575 2.563C13.9583 1.855 14.6 1.00067 15.5 0C16.4 1 17.0417 1.85433 17.425 2.563C17.8083 3.27167 18 3.91733 18 4.5C18 5.15 17.7457 5.72933 17.237 6.238C16.7283 6.74667 16.1493 7.00067 15.5 7Z" fill="white"/>
</svg>
