<svg width="48" height="48" viewBox="0 0 48 48" fill="none" xmlns="http://www.w3.org/2000/svg">
<g filter="url(#filter0_d_142_1061)">
<rect x="4" y="2" width="40" height="40" rx="20" fill="#F28314"/>
<path d="M27 31C25.0333 31 23.2833 30.4417 21.75 29.325C20.2167 28.2083 19.1333 26.7667 18.5 25H15V23H18.05C18 22.6 17.9793 22.2293 17.988 21.888C17.9967 21.5467 18.0173 21.2507 18.05 21H15V19H18.5C19.1333 17.2333 20.2167 15.7917 21.75 14.675C23.2833 13.5583 25.0333 13 27 13C28.15 13 29.2377 13.2043 30.263 13.613C31.2883 14.0217 32.2007 14.584 33 15.3L31.575 16.7C30.9583 16.1667 30.2627 15.75 29.488 15.45C28.7133 15.15 27.884 15 27 15C25.5833 15 24.3167 15.371 23.2 16.113C22.0833 16.855 21.2417 17.8173 20.675 19H27V21H20.075C20.0083 21.45 19.9833 21.846 20 22.188C20.0167 22.53 20.0417 22.8007 20.075 23H27V25H20.675C21.2417 26.1833 22.0833 27.146 23.2 27.888C24.3167 28.63 25.5833 29.0007 27 29C27.8833 29 28.7127 28.85 29.488 28.55C30.2633 28.25 30.959 27.8333 31.575 27.3L33 28.7C32.2 29.4167 31.2873 29.9793 30.262 30.388C29.2367 30.7967 28.1493 31.0007 27 31Z" fill="white"/>
</g>
<defs>
<filter id="filter0_d_142_1061" x="0" y="0" width="48" height="48" filterUnits="userSpaceOnUse" color-interpolation-filters="sRGB">
<feFlood flood-opacity="0" result="BackgroundImageFix"/>
<feColorMatrix in="SourceAlpha" type="matrix" values="0 0 0 0 0 0 0 0 0 0 0 0 0 0 0 0 0 0 127 0" result="hardAlpha"/>
<feOffset dy="2"/>
<feGaussianBlur stdDeviation="2"/>
<feColorMatrix type="matrix" values="0 0 0 0 0.180392 0 0 0 0 0.14902 0 0 0 0 0.239216 0 0 0 0.16 0"/>
<feBlend mode="normal" in2="BackgroundImageFix" result="effect1_dropShadow_142_1061"/>
<feBlend mode="normal" in="SourceGraphic" in2="effect1_dropShadow_142_1061" result="shape"/>
</filter>
</defs>
</svg>
