<svg width="24" height="24" viewBox="0 0 24 24" fill="none" xmlns="http://www.w3.org/2000/svg">
<path fill-rule="evenodd" clip-rule="evenodd" d="M20.3547 1.21592L20.2114 0H16.8581L16.7144 1.21514L16.6248 1.96798L16.4487 2.08252L16.291 2.19952L15.6979 1.91553L14.7421 1.45814L14.226 2.5181L13.5844 3.83583L13.0674 4.89762L13.88 5.65418L14.382 6.12141L14.3804 6.14328C14.3775 6.2131 14.376 6.28298 14.3759 6.35288L14.3804 6.5608L14.3832 6.59012L13.8801 7.05903L13.0671 7.81552L13.5842 8.87759L14.2261 10.196L14.7421 11.2558L15.6979 10.7987L16.2898 10.5148L16.4544 10.6372L16.6248 10.7464L16.7128 11.4901L16.8562 12.7058H20.2092L20.3531 11.4908L20.4416 10.7364L20.6187 10.6234L20.7754 10.5049L21.3694 10.7902L22.3254 11.2476L22.8414 10.1877L23.483 8.87L24 7.80821L23.1874 7.05165L22.6856 6.58442L22.6869 6.56255C22.6899 6.49177 22.6914 6.42188 22.6914 6.35288L22.687 6.14504L22.6844 6.1129L23.1876 5.64603L24 4.88947L23.483 3.82775L22.8413 2.50974L22.3253 1.44999L21.3696 1.90716L20.7766 2.1896L20.613 2.0686L20.4416 1.95806L20.3547 1.21592ZM18.6503 9.17642C19.9625 9.17642 21.0261 7.91227 21.0261 6.35288C21.0261 4.79349 19.9625 3.52941 18.6503 3.52941C17.3381 3.52941 16.2745 4.79349 16.2745 6.35288C16.2745 7.91227 17.3381 9.17642 18.6503 9.17642ZM7.28756 12.5101L7.14425 11.2941H3.791L3.64719 12.5092L3.55762 13.2621L3.38163 13.3766L3.22381 13.4936L2.63075 13.2097L1.67494 12.7523L1.15887 13.8123L0.51725 15.13L0.000249863 16.1918L0.81275 16.9484L1.31481 17.4155L1.31337 17.4374C1.31038 17.5072 1.30886 17.5771 1.30881 17.647L1.31325 17.8548L1.31606 17.8842L0.812938 18.3532L0 19.1096L0.517063 20.1717L1.15894 21.4901L1.67494 22.5499L2.63069 22.0928L3.22262 21.8089L3.38725 21.9313L3.55762 22.0405L3.64575 22.7842L3.78912 24H7.14213L7.28594 22.7849L7.37444 22.0305L7.5515 21.9175L7.70825 21.7991L8.30237 22.0843L9.25819 22.5418L9.77425 21.4818L10.4159 20.1641L10.9329 19.1023L10.1203 18.3457L9.61844 17.8786L9.61975 17.8567C9.62275 17.7858 9.62427 17.716 9.62431 17.647L9.61987 17.4392L9.61725 17.4071L10.1204 16.9402L10.9329 16.1836L10.4159 15.122L9.77419 13.8039L9.25819 12.7441L8.30244 13.2013L7.70944 13.4838L7.54587 13.3628L7.37444 13.2522L7.28756 12.5101ZM5.58319 20.4706C6.89531 20.4706 7.959 19.2064 7.959 17.647C7.959 16.0876 6.89531 14.8235 5.58319 14.8235C4.271 14.8235 3.20731 16.0876 3.20731 17.647C3.20731 19.2065 4.271 20.4706 5.58319 20.4706ZM24 21H12V24H24V21ZM0 0H12V2.99996H0V0ZM12 8.99994H9.33331V12H12V8.99994Z" fill="white"/>
</svg>
