<svg width="29" height="29" viewBox="0 0 29 29" fill="none" xmlns="http://www.w3.org/2000/svg">
<path d="M2.59069 28.84C2.59069 28.84 0.203491 28.84 0.203491 26.5166C0.203491 24.1933 2.59069 17.2233 14.5267 17.2233C26.4627 17.2233 28.8499 24.1933 28.8499 26.5166C28.8499 28.84 26.4627 28.84 26.4627 28.84H2.59069ZM21.6883 7.92996C21.6883 9.77852 20.9338 11.5514 19.5907 12.8585C18.2476 14.1656 16.4261 14.9 14.5267 14.9C12.6273 14.9 10.8057 14.1656 9.46267 12.8585C8.11961 11.5514 7.36509 9.77852 7.36509 7.92996C7.36509 6.0814 8.11961 4.30856 9.46267 3.00143C10.8057 1.6943 12.6273 0.959961 14.5267 0.959961C16.4261 0.959961 18.2476 1.6943 19.5907 3.00143C20.9338 4.30856 21.6883 6.0814 21.6883 7.92996Z" fill="white"/>
</svg>
