<svg width="21" height="22" viewBox="0 0 21 22" fill="none" xmlns="http://www.w3.org/2000/svg">
<path d="M16.625 10.0833H4.375C3.4085 10.0833 2.625 10.9041 2.625 11.9166V18.3333C2.625 19.3458 3.4085 20.1666 4.375 20.1666H16.625C17.5915 20.1666 18.375 19.3458 18.375 18.3333V11.9166C18.375 10.9041 17.5915 10.0833 16.625 10.0833Z" stroke="#295177" stroke-width="3" stroke-linecap="round" stroke-linejoin="round"/>
<path d="M6.125 10.0833V6.41665C6.125 5.20107 6.58594 4.03528 7.40641 3.17574C8.22688 2.3162 9.33968 1.83331 10.5 1.83331C11.6603 1.83331 12.7731 2.3162 13.5936 3.17574C14.4141 4.03528 14.875 5.20107 14.875 6.41665V10.0833" stroke="#295177" stroke-width="3" stroke-linecap="round" stroke-linejoin="round"/>
</svg>
