<svg width="43" height="39" viewBox="0 0 43 39" fill="none" xmlns="http://www.w3.org/2000/svg">
<path d="M1.42004 1H36.92C39.9576 1 42.42 3.46243 42.42 6.5V32.5C42.42 35.5376 39.9576 38 36.92 38H1.42004V1Z" fill="#0D6EFD"/>
<path d="M1.42004 1H36.92C39.9576 1 42.42 3.46243 42.42 6.5V32.5C42.42 35.5376 39.9576 38 36.92 38H1.42004V1Z" stroke="#0D6EFD"/>
<path d="M26.92 16C26.92 17.4344 26.4544 18.7594 25.67 19.8344L29.6263 23.7937C30.0169 24.1844 30.0169 24.8188 29.6263 25.2094C29.2357 25.6 28.6013 25.6 28.2107 25.2094L24.2544 21.25C23.1794 22.0375 21.8544 22.5 20.42 22.5C16.8294 22.5 13.92 19.5906 13.92 16C13.92 12.4094 16.8294 9.5 20.42 9.5C24.0107 9.5 26.92 12.4094 26.92 16ZM20.42 20.5C21.011 20.5 21.5962 20.3836 22.1421 20.1575C22.6881 19.9313 23.1842 19.5998 23.602 19.182C24.0199 18.7641 24.3514 18.268 24.5775 17.7221C24.8036 17.1761 24.92 16.5909 24.92 16C24.92 15.4091 24.8036 14.8239 24.5775 14.2779C24.3514 13.732 24.0199 13.2359 23.602 12.818C23.1842 12.4002 22.6881 12.0687 22.1421 11.8425C21.5962 11.6164 21.011 11.5 20.42 11.5C19.8291 11.5 19.2439 11.6164 18.698 11.8425C18.152 12.0687 17.6559 12.4002 17.2381 12.818C16.8202 13.2359 16.4887 13.732 16.2626 14.2779C16.0364 14.8239 15.92 15.4091 15.92 16C15.92 16.5909 16.0364 17.1761 16.2626 17.7221C16.4887 18.268 16.8202 18.7641 17.2381 19.182C17.6559 19.5998 18.152 19.9313 18.698 20.1575C19.2439 20.3836 19.8291 20.5 20.42 20.5Z" fill="white"/>
</svg>
