<svg width="31" height="28" viewBox="0 0 31 28" fill="none" xmlns="http://www.w3.org/2000/svg">
<path d="M9.92 21L15.5 15.96L21.08 21L23.25 19.04L17.67 14L23.25 8.96L21.08 7L15.5 12.04L9.92 7L7.75 8.96L13.33 14L7.75 19.04L9.92 21ZM15.5 28C13.3558 28 11.3408 27.6323 9.455 26.8968C7.56917 26.1623 5.92875 25.165 4.53375 23.905C3.13875 22.645 2.03463 21.1633 1.2214 19.46C0.407133 17.7567 0 15.9367 0 14C0 12.0633 0.407133 10.2433 1.2214 8.54C2.03463 6.83667 3.13875 5.355 4.53375 4.095C5.92875 2.835 7.56917 1.83727 9.455 1.1018C11.3408 0.367267 13.3558 0 15.5 0C17.6442 0 19.6592 0.367267 21.545 1.1018C23.4308 1.83727 25.0712 2.835 26.4662 4.095C27.8612 5.355 28.9654 6.83667 29.7786 8.54C30.5929 10.2433 31 12.0633 31 14C31 15.9367 30.5929 17.7567 29.7786 19.46C28.9654 21.1633 27.8612 22.645 26.4662 23.905C25.0712 25.165 23.4308 26.1623 21.545 26.8968C19.6592 27.6323 17.6442 28 15.5 28Z" fill="#F04248"/>
</svg>
