<svg width="48" height="48" viewBox="0 0 48 48" fill="none" xmlns="http://www.w3.org/2000/svg">
<g filter="url(#filter0_d_195_770)">
<rect x="4" y="2" width="40" height="40" rx="20" fill="#F28314"/>
<path fill-rule="evenodd" clip-rule="evenodd" d="M14 15.75C14 15.5511 14.079 15.3603 14.2197 15.2197C14.3603 15.079 14.5511 15 14.75 15H32.75C32.9489 15 33.1397 15.079 33.2803 15.2197C33.421 15.3603 33.5 15.5511 33.5 15.75C33.5 15.9489 33.421 16.1397 33.2803 16.2803C33.1397 16.421 32.9489 16.5 32.75 16.5H14.75C14.5511 16.5 14.3603 16.421 14.2197 16.2803C14.079 16.1397 14 15.9489 14 15.75ZM14 19.75C14 19.5511 14.079 19.3603 14.2197 19.2197C14.3603 19.079 14.5511 19 14.75 19H32.75C32.9489 19 33.1397 19.079 33.2803 19.2197C33.421 19.3603 33.5 19.5511 33.5 19.75C33.5 19.9489 33.421 20.1397 33.2803 20.2803C33.1397 20.421 32.9489 20.5 32.75 20.5H14.75C14.5511 20.5 14.3603 20.421 14.2197 20.2803C14.079 20.1397 14 19.9489 14 19.75ZM32.211 22.659C32.3676 22.7813 32.4693 22.9608 32.4937 23.1581C32.5181 23.3554 32.4631 23.5542 32.341 23.711L28.441 28.711C28.3723 28.799 28.2847 28.8705 28.1848 28.9204C28.0849 28.9702 27.9751 28.9971 27.8635 28.9991C27.7519 29.0012 27.6412 28.9782 27.5395 28.932C27.4379 28.8858 27.3479 28.8175 27.276 28.732L25.176 26.232C25.1086 26.1572 25.0569 26.0696 25.024 25.9744C24.9912 25.8792 24.9778 25.7783 24.9848 25.6778C24.9918 25.5774 25.0189 25.4793 25.0646 25.3896C25.1103 25.2998 25.1736 25.2201 25.2507 25.1554C25.3278 25.0906 25.4172 25.042 25.5135 25.0126C25.6098 24.9831 25.7111 24.9733 25.8113 24.9838C25.9114 24.9943 26.0084 25.0249 26.0965 25.0737C26.1846 25.1226 26.262 25.1886 26.324 25.268L27.828 27.058L31.158 22.788C31.2186 22.7103 31.2939 22.6453 31.3796 22.5967C31.4653 22.5481 31.5598 22.5169 31.6576 22.5048C31.7554 22.4927 31.8546 22.5001 31.9495 22.5263C32.0445 22.5526 32.1333 22.5974 32.211 22.658M14 23.75C14 23.5511 14.079 23.3603 14.2197 23.2197C14.3603 23.079 14.5511 23 14.75 23H21.75C21.9489 23 22.1397 23.079 22.2803 23.2197C22.421 23.3603 22.5 23.5511 22.5 23.75C22.5 23.9489 22.421 24.1397 22.2803 24.2803C22.1397 24.421 21.9489 24.5 21.75 24.5H14.75C14.5511 24.5 14.3603 24.421 14.2197 24.2803C14.079 24.1397 14 23.9489 14 23.75ZM14 27.75C14 27.5511 14.079 27.3603 14.2197 27.2197C14.3603 27.079 14.5511 27 14.75 27H21.75C21.9489 27 22.1397 27.079 22.2803 27.2197C22.421 27.3603 22.5 27.5511 22.5 27.75C22.5 27.9489 22.421 28.1397 22.2803 28.2803C22.1397 28.421 21.9489 28.5 21.75 28.5H14.75C14.5511 28.5 14.3603 28.421 14.2197 28.2803C14.079 28.1397 14 27.9489 14 27.75Z" fill="white"/>
</g>
<defs>
<filter id="filter0_d_195_770" x="0" y="0" width="48" height="48" filterUnits="userSpaceOnUse" color-interpolation-filters="sRGB">
<feFlood flood-opacity="0" result="BackgroundImageFix"/>
<feColorMatrix in="SourceAlpha" type="matrix" values="0 0 0 0 0 0 0 0 0 0 0 0 0 0 0 0 0 0 127 0" result="hardAlpha"/>
<feOffset dy="2"/>
<feGaussianBlur stdDeviation="2"/>
<feColorMatrix type="matrix" values="0 0 0 0 0.180392 0 0 0 0 0.14902 0 0 0 0 0.239216 0 0 0 0.16 0"/>
<feBlend mode="normal" in2="BackgroundImageFix" result="effect1_dropShadow_195_770"/>
<feBlend mode="normal" in="SourceGraphic" in2="effect1_dropShadow_195_770" result="shape"/>
</filter>
</defs>
</svg>
