<svg width="22" height="22" viewBox="0 0 22 22" fill="none" xmlns="http://www.w3.org/2000/svg">
<path d="M4 5.5C4 4.04131 4.57946 2.64236 5.61091 1.61091C6.64236 0.579463 8.04131 0 9.5 0C10.9587 0 12.3576 0.579463 13.3891 1.61091C14.4205 2.64236 15 4.04131 15 5.5C15 6.95869 14.4205 8.35764 13.3891 9.38909C12.3576 10.4205 10.9587 11 9.5 11C8.04131 11 6.64236 10.4205 5.61091 9.38909C4.57946 8.35764 4 6.95869 4 5.5ZM12.5 11.5H21.5V17.134C21.4998 17.6326 21.3754 18.1233 21.1379 18.5617C20.9005 19.0001 20.5575 19.3724 20.14 19.645L17 21.697L13.86 19.645C13.4425 19.3724 13.0995 19.0001 12.8621 18.5617C12.6246 18.1233 12.5002 17.6326 12.5 17.134V11.5ZM10.5 20H0V18C0 16.4087 0.632141 14.8826 1.75736 13.7574C2.88258 12.6321 4.4087 12 6 12H10.5V20Z" fill="white"/>
</svg>
