<svg width="31" height="32" viewBox="0 0 31 32" fill="none" xmlns="http://www.w3.org/2000/svg">
<path d="M9 8.875C9 8.39102 9.39102 8 9.875 8H20.375C20.859 8 21.25 8.39102 21.25 8.875C21.25 9.35898 20.859 9.75 20.375 9.75H9.875C9.39102 9.75 9 9.35898 9 8.875ZM9 13.25C9 12.766 9.39102 12.375 9.875 12.375H20.375C20.859 12.375 21.25 12.766 21.25 13.25C21.25 13.734 20.859 14.125 20.375 14.125H9.875C9.39102 14.125 9 13.734 9 13.25ZM21.25 17.625C21.25 18.109 20.859 18.5 20.375 18.5H9.875C9.39102 18.5 9 18.109 9 17.625C9 17.141 9.39102 16.75 9.875 16.75H20.375C20.859 16.75 21.25 17.141 21.25 17.625Z" fill="white" fill-opacity="0.5"/>
</svg>
