<svg width="24" height="24" viewBox="0 0 24 24" fill="none" xmlns="http://www.w3.org/2000/svg">
<path d="M13 11L18 6.00002M19 7.00002L17 5.00002L19.5 3.50002L20.5 4.50002L19 7.00002ZM4.025 8.97502C3.54489 8.49534 3.2146 7.88642 3.07434 7.2224C2.93408 6.55837 2.9899 5.86789 3.235 5.23502L4.657 6.65702H6.657V4.65702L5.235 3.23502C5.86791 2.98936 6.55861 2.93308 7.22295 3.07304C7.88728 3.213 8.49657 3.54314 8.97659 4.02326C9.4566 4.50338 9.78661 5.11275 9.92642 5.77711C10.0662 6.44148 10.0098 7.13216 9.764 7.76502L16.234 14.236C16.8669 13.9902 17.5575 13.9338 18.2219 14.0736C18.8863 14.2134 19.4956 14.5434 19.9758 15.0234C20.4559 15.5035 20.786 16.1127 20.926 16.7771C21.0659 17.4414 21.0097 18.1321 20.764 18.765L19.343 17.343H17.343V19.343L18.765 20.765C18.1322 21.0107 17.4417 21.067 16.7775 20.9273C16.1133 20.7875 15.504 20.4576 15.024 19.9777C14.5439 19.4978 14.2137 18.8888 14.0736 18.2246C13.9336 17.5604 13.9896 16.8699 14.235 16.237L7.763 9.76502C7.13039 10.0097 6.44032 10.0653 5.7767 9.92505C5.11308 9.7848 4.50451 9.45474 4.025 8.97502Z" stroke="white" stroke-width="1.5" stroke-linecap="round" stroke-linejoin="round"/>
<path d="M12.203 14.5L6.599 20.104C6.47361 20.2296 6.32467 20.3293 6.16071 20.3973C5.99676 20.4653 5.821 20.5003 5.6435 20.5003C5.466 20.5003 5.29024 20.4653 5.12629 20.3973C4.96233 20.3293 4.81339 20.2296 4.688 20.104L3.896 19.312C3.77037 19.1866 3.6707 19.0377 3.6027 18.8737C3.53469 18.7098 3.49969 18.534 3.49969 18.3565C3.49969 18.179 3.53469 18.0032 3.6027 17.8393C3.6707 17.6753 3.77037 17.5264 3.896 17.401L9.5 11.797" stroke="white" stroke-width="1.5" stroke-linecap="round" stroke-linejoin="round"/>
</svg>
