<svg width="20" height="20" viewBox="0 0 20 20" fill="none" xmlns="http://www.w3.org/2000/svg">
<path d="M9.42708 12.5C9.32986 12.6953 9.25694 12.8971 9.20833 13.1055C9.15972 13.3138 9.11458 13.5286 9.07292 13.75H2.66667V12.5H9.42708ZM2.66667 16.25V15H9.05208C9.08681 15.2148 9.13542 15.4264 9.19792 15.6348C9.26042 15.8431 9.34028 16.0482 9.4375 16.25H2.66667ZM1.33333 18.75H15.3854L16.7083 20H0V0H11.6146L17.3333 5.36133V10.9082C17.1319 10.7389 16.9201 10.5859 16.6979 10.4492C16.4757 10.3125 16.2431 10.1921 16 10.0879V6.25H10.6667V1.25H1.33333V18.75ZM12 2.13867V5H15.0521L12 2.13867ZM12.25 10C11.4931 10.2669 10.8438 10.6836 10.3021 11.25H2.66667V10H12.25ZM2.66667 5H9.33333V6.25H2.66667V5ZM14.6667 7.5V8.75H2.66667V7.5H14.6667ZM20 19.375C20 19.5443 19.934 19.6908 19.8021 19.8145C19.6701 19.9382 19.5139 20 19.3333 20C19.1528 20 18.9965 19.9382 18.8646 19.8145L15.8333 16.9824C15.5625 17.1517 15.2708 17.2786 14.9583 17.3633C14.6458 17.4479 14.3264 17.4935 14 17.5C13.5417 17.5 13.1111 17.4186 12.7083 17.2559C12.3056 17.0931 11.9514 16.8717 11.6458 16.5918C11.3403 16.3118 11.1007 15.9798 10.9271 15.5957C10.7535 15.2116 10.6667 14.8047 10.6667 14.375C10.6667 13.9453 10.7535 13.5417 10.9271 13.1641C11.1007 12.7865 11.3368 12.4577 11.6354 12.1777C11.934 11.8978 12.2882 11.6732 12.6979 11.5039C13.1076 11.3346 13.5417 11.25 14 11.25C14.4583 11.25 14.8889 11.3314 15.2917 11.4941C15.6944 11.6569 16.0451 11.8815 16.3437 12.168C16.6424 12.4544 16.8819 12.7865 17.0625 13.1641C17.2431 13.5417 17.3333 13.9453 17.3333 14.375C17.3333 14.681 17.2882 14.9805 17.1979 15.2734C17.1076 15.5664 16.9688 15.8398 16.7812 16.0938L19.8021 18.9355C19.934 19.0592 20 19.2057 20 19.375ZM12 14.375C12 14.6354 12.0521 14.8796 12.1562 15.1074C12.2604 15.3353 12.4028 15.5339 12.5833 15.7031C12.7639 15.8724 12.9757 16.0059 13.2188 16.1035C13.4618 16.2012 13.7222 16.25 14 16.25C14.2778 16.25 14.5382 16.2012 14.7812 16.1035C15.0243 16.0059 15.2361 15.8724 15.4167 15.7031C15.5972 15.5339 15.7396 15.3353 15.8437 15.1074C15.9479 14.8796 16 14.6354 16 14.375C16 14.1146 15.9479 13.8704 15.8437 13.6426C15.7396 13.4147 15.5972 13.2161 15.4167 13.0469C15.2361 12.8776 15.0243 12.7441 14.7812 12.6465C14.5382 12.5488 14.2778 12.5 14 12.5C13.7222 12.5 13.4618 12.5488 13.2188 12.6465C12.9757 12.7441 12.7639 12.8776 12.5833 13.0469C12.4028 13.2161 12.2604 13.4147 12.1562 13.6426C12.0521 13.8704 12 14.1146 12 14.375Z" fill="white"/>
</svg>
